<svg width="34" height="34" viewBox="0 0 34 34" fill="none" xmlns="http://www.w3.org/2000/svg">
<path d="M32.2532 18.7797H21.6614L29.1473 26.3237C29.3862 26.5645 29.3862 26.9658 29.1473 27.2868C28.8288 27.6881 28.5102 28.0893 28.112 28.4104C27.7935 28.7314 27.3953 29.1327 26.9971 29.4537C26.7582 29.6944 26.2804 29.6944 26.0414 29.4537L18.5555 21.9097V32.5836C18.5555 32.9849 18.3166 33.2257 17.9184 33.3059C17.4406 33.3862 16.9628 33.3862 16.4053 33.3862C15.9275 33.3862 15.37 33.3862 14.8922 33.3059C14.494 33.3059 14.2551 32.9849 14.2551 32.5836V21.8294L6.76918 29.3734C6.53027 29.6142 6.13208 29.6142 5.81353 29.4537C5.49498 29.1327 5.17643 28.8919 4.85788 28.5709C4.77825 28.4906 4.69861 28.4104 4.53933 28.2498C4.22079 27.9288 3.90224 27.6078 3.66332 27.2868C3.42441 27.046 3.42441 26.6447 3.74296 26.3237L11.2289 18.7797H0.796375C0.398187 18.7797 0.159275 18.539 0.0796375 18.1377C0 17.6562 0 17.1746 0 16.6128C0 16.0511 0 15.5695 0.0796375 15.088C0.0796375 14.767 0.398187 14.4459 0.796375 14.4459H11.3882L3.8226 6.90195C3.58369 6.66119 3.58369 6.25991 3.8226 5.93889C4.14115 5.61787 4.4597 5.21659 4.85788 4.89557C5.17643 4.49429 5.57462 4.17327 5.97281 3.85225C6.21172 3.61149 6.68955 3.61149 6.92846 3.85225L14.4144 11.3962V0.802553C14.4144 0.401276 14.6533 0.160511 15.0515 0.0802553C15.5293 0 16.0071 0 16.485 0C16.9628 0 17.5202 0 17.9981 0.0802553C18.3963 0.0802553 18.6352 0.401276 18.6352 0.802553V11.4765L26.1211 3.93251C26.36 3.69174 26.7582 3.69174 27.0767 3.93251C27.4749 4.25353 27.7935 4.57455 28.1917 4.97583C28.5102 5.29685 28.9084 5.69812 29.2269 6.0994C29.4659 6.34016 29.4659 6.8217 29.2269 7.06246L21.6614 14.4459H32.2532C32.6514 14.4459 32.8903 14.6867 32.9699 15.088C33.0495 15.5695 33.0495 16.0511 33.0495 16.6128C33.0495 17.1746 33.0495 17.6562 32.9699 18.1377C32.8903 18.539 32.5717 18.7797 32.2532 18.7797Z" fill="#52A158"/>
</svg>
